<svg width="256" height="149" viewBox="0 0 256 149" fill="none" xmlns="http://www.w3.org/2000/svg">
<path d="M0 0H256V99C256 112.261 250.732 124.979 241.355 134.355C231.979 143.732 219.261 149 206 149H50C36.7392 149 24.0215 143.732 14.6447 134.355C5.26784 124.979 0 112.261 0 99L0 0Z" fill="#E0B973"/>
<path d="M99.17 99.915C99.53 100.215 99.935 100.46 100.385 100.65C100.835 100.84 101.36 100.935 101.96 100.935C102.68 100.935 103.25 100.785 103.67 100.485C104.09 100.185 104.3 99.78 104.3 99.27C104.3 99.06 104.27 98.865 104.21 98.685C104.15 98.505 104.03 98.335 103.85 98.175C103.68 98.005 103.435 97.84 103.115 97.68C102.805 97.51 102.4 97.33 101.9 97.14C101.36 96.93 100.9 96.725 100.52 96.525C100.15 96.315 99.85 96.09 99.62 95.85C99.39 95.6 99.225 95.33 99.125 95.04C99.025 94.74 98.975 94.4 98.975 94.02C98.975 93.65 99.05 93.3 99.2 92.97C99.36 92.64 99.59 92.355 99.89 92.115C100.2 91.865 100.575 91.67 101.015 91.53C101.465 91.39 101.975 91.32 102.545 91.32C103.165 91.32 103.72 91.385 104.21 91.515C104.7 91.635 105.185 91.81 105.665 92.04L105.14 93.255C104.8 93.055 104.4 92.89 103.94 92.76C103.49 92.62 103.015 92.55 102.515 92.55C101.855 92.55 101.335 92.68 100.955 92.94C100.575 93.19 100.385 93.525 100.385 93.945C100.385 94.145 100.41 94.325 100.46 94.485C100.52 94.635 100.63 94.785 100.79 94.935C100.96 95.075 101.19 95.22 101.48 95.37C101.78 95.52 102.175 95.685 102.665 95.865C103.245 96.085 103.735 96.31 104.135 96.54C104.535 96.77 104.855 97.015 105.095 97.275C105.335 97.535 105.505 97.815 105.605 98.115C105.715 98.415 105.77 98.745 105.77 99.105C105.77 99.595 105.675 100.03 105.485 100.41C105.295 100.79 105.03 101.115 104.69 101.385C104.36 101.645 103.96 101.845 103.49 101.985C103.02 102.115 102.51 102.18 101.96 102.18C101.23 102.18 100.565 102.085 99.965 101.895C99.365 101.695 98.86 101.435 98.45 101.115L99.17 99.915ZM115.675 91.5H123.55V92.76H120.325V102H118.9V92.76H115.675V91.5ZM131.956 101.625L136.066 91.5H137.626L141.676 101.625L140.371 102.15L139.201 99.15H134.341L133.171 102.12L131.956 101.625ZM134.791 97.95H138.736L136.771 92.91L134.791 97.95ZM154.331 96.69L157.481 91.425L158.606 92.085L154.991 98.01V102H153.566V98.01L149.921 92.085L151.121 91.365L154.331 96.69Z" fill="#14274A"/>
<path d="M75.4 51H96.4V54.36H87.8V79H84V54.36H75.4V51ZM123.997 66.24H110.197V79H106.397V51H110.197V62.96H123.997V51H127.797V79H123.997V66.24ZM137.791 78L148.751 51H152.911L163.711 78L160.231 79.4L157.111 71.4H144.151L141.031 79.32L137.791 78ZM145.351 68.2H155.871L150.631 54.76L145.351 68.2ZM173.709 79V51H177.509V79H173.709Z" fill="#14274A"/>
</svg>
